<svg version="1.1" viewBox="0 0 24 24" xmlns="http://www.w3.org/2000/svg">
<path d="m5 3-.65 3.34 5.185 0 .518-2.414.211-.926-5.264 0zm6.955 0-.719 3.34 3.139 0 .225-1.051-1.397 0 .262-1.238 1.4 0 .24-1.051-1.419 0-1.731 0zm4.736 0-.226 1.051 1.33 0 .225-1.051-1.329 0zm2.918 0-.226 1.051 1.277 0-.562 2.834 1.072 0 .769-3.885-2.33 0zm-3.41 2.289-.226 1.051 1.966 0-.111.545 1.072 0 .325-1.596-3.026 0zm1.416 2.647-.115.564-1.992 0-.227 1.051 3.076 0 .329-1.615-1.071 0zm2.274 0-.52 2.619-.238 1.211-.188.937 1.071 0 .146-.732.24-1.211.561-2.824-1.072 0zm-15.969.564-.66 3.33 5.097 0 .715-3.33-5.152 0zm6.851 0-.716 3.33 3.144 0 .225-1.051-1.381 0 .258-1.228 1.387 0 .224-1.051-3.141 0zm4.247 2.279-.227 1.051 2.059 0-.174.873 1.07 0 .385-1.924-3.113 0zm1.449 2.975-.18.894 1.072 0 .178-.894-1.07 0zm2.267 0-.177.894 1.07 0 .178-.894-1.071 0zm-15.884.246-.789 4 4.597 1.758.756-3.526-1.555-.591.33-1.641-3.339 0zm13.062 1.699-2.101.694-.256 1.191 3.445-1.139.148-.746-1.236 0zm2.436 0-.299 1.496-1.403.465.045 0-.252 1.176 2.522-.836.457-2.301-1.07 0zm-9.368 1.129-.757 3.527 1.66.635.027.01 1.424-.471 0-.002.256-1.191-1.459.484.254-1.197.199-.059 1.26-.416.256-1.191-1.465.484-.026.008-1.629-.621zm5.999 1.385-1.68.557-.256 1.191 1.674-.555.148-.695.114-.498z" fill="#42a5f5"/>
</svg>
